<?xml version="1.0" encoding="utf-8"?>
<!-- Generator: Adobe Illustrator 22.0.1, SVG Export Plug-In . SVG Version: 6.00 Build 0)  -->
<svg version="1.1" id="Layer_1_copy" xmlns="http://www.w3.org/2000/svg" xmlns:xlink="http://www.w3.org/1999/xlink" x="0px"
	 y="0px" width="100px" height="100px" viewBox="0 0 100 100" style="enable-background:new 0 0 100 100;" xml:space="preserve">
<style type="text/css">
	.st0{fill:#010202;}
</style>
<path class="st0" d="M80,51.65v30.04c0,1.35-0.48,2.52-1.44,3.5c-0.96,0.98-2.14,1.48-3.54,1.48H24.98c-1.35,0-2.52-0.49-3.5-1.48
	C20.49,84.2,20,83.04,20,81.69V51.65c0-1.41,0.49-2.59,1.48-3.54c0.98-0.96,2.15-1.43,3.5-1.43h1.69V36.62
	c0-6.36,2.29-11.83,6.88-16.41c4.58-4.58,10.07-6.88,16.46-6.88c6.38,0,11.87,2.29,16.46,6.88c4.58,4.59,6.88,10.06,6.88,16.41
	v10.04h1.69c1.41,0,2.59,0.48,3.54,1.43C79.52,49.06,80,50.24,80,51.65z M36.71,46.67h26.67V36.62c0-3.66-1.31-6.79-3.92-9.41
	c-2.62-2.62-5.77-3.92-9.45-3.92c-3.69,0-6.82,1.31-9.41,3.92c-2.59,2.62-3.88,5.75-3.88,9.41V46.67z"/>
</svg>
